<svg version="1.1" id="Layer_1" xmlns="http://www.w3.org/2000/svg" xmlns:xlink="http://www.w3.org/1999/xlink" x="0px" y="0px"
	 width="100%" viewBox="0 0 1181 1182" enable-background="new 0 0 1181 1182" xml:space="preserve">
<path fill="#FFFFFF" opacity="1.000000" stroke="none" 
	d="

 
M599.072632,232.946381 
	C596.396423,232.910065 593.720276,232.873764 590.865234,232.478653 
	C590.561523,232.593704 590.257874,232.708755 589.221802,232.962372 
	C588.479431,232.963684 587.737122,232.964996 586.744873,232.463959 
	C586.120483,232.846664 585.496094,233.229385 584.268311,234.045090 
	C584.110779,235.005188 583.953186,235.965286 582.945740,237.005066 
	C582.780151,243.526993 582.604858,250.048752 582.506592,256.571686 
	C582.504211,256.730530 583.359863,256.902252 583.920898,257.991272 
	C583.970215,264.990570 584.019531,271.989868 583.524780,279.516724 
	C583.764404,281.627411 584.004028,283.738129 584.602783,286.022003 
	C584.602783,286.022003 584.896179,286.291962 585.073425,287.075287 
	C591.283203,287.374817 597.491882,287.711700 603.705078,287.893799 
	C604.141174,287.906616 604.610840,286.774780 605.777832,286.073486 
	C606.494690,286.113983 607.211548,286.154480 608.011597,286.921814 
	C608.513184,287.254364 609.060364,287.927399 609.509277,287.867157 
	C614.392090,287.212158 616.269348,285.009979 615.930115,278.755829 
	C615.151672,264.403076 614.010132,250.069489 612.906494,235.736542 
	C612.857178,235.096436 611.729980,234.539337 610.526184,233.623413 
	C609.688232,233.400787 608.850281,233.178162 607.661865,232.464615 
	C606.765259,232.605804 605.868713,232.746994 604.187866,232.975800 
	C603.137390,232.941483 602.086914,232.907166 600.856140,232.535309 
	C600.557678,232.641907 600.259216,232.748505 599.072632,232.946381 
M527.928955,690.609131 
	C515.546814,683.318176 502.353851,677.102783 490.953827,668.508972 
	C468.317474,651.444763 450.475342,630.086426 440.651825,603.011597 
	C437.172028,593.420959 434.685425,583.457825 432.018921,573.590881 
	C431.088318,570.147278 430.042084,568.024475 426.027405,569.740540 
	C424.838440,570.248779 423.425842,570.205994 422.178528,570.609741 
	C409.632233,574.671387 397.153595,578.953796 384.534943,582.774231 
	C379.588562,584.271729 376.919983,586.382141 378.874420,591.830933 
	C379.152222,592.605469 379.223297,593.452637 379.410065,594.261536 
	C390.125854,640.677063 415.222137,678.029480 451.812683,707.852234 
	C481.578522,732.112427 515.601135,747.056824 553.591492,753.326904 
	C583.437317,758.252686 613.457886,759.135315 643.129700,754.574890 
	C685.178040,748.112244 722.867371,731.137146 755.124451,702.598999 
	C772.403137,687.312378 788.996399,671.627869 801.554077,652.072693 
	C814.321716,632.190735 820.787354,610.225098 823.942627,586.790039 
	C804.889343,582.496826 786.891418,574.259277 767.381409,574.820923 
	C766.779724,578.272583 766.337097,580.876587 765.870850,583.476318 
	C761.057800,610.313110 749.260559,633.530029 728.720398,651.596375 
	C717.521606,661.446350 705.418213,670.332825 693.277649,679.032715 
	C671.246094,694.820740 646.393311,702.561279 619.336792,702.777954 
	C606.527344,702.880615 593.701782,702.368164 580.900574,701.770386 
	C562.930054,700.931152 545.286438,698.267944 527.928955,690.609131 
M737.380554,359.075043 
	C725.812683,352.663086 714.675415,345.258087 702.597961,340.021271 
	C662.873840,322.796692 621.267456,316.592285 578.092407,320.623932 
	C551.162292,323.138611 525.248962,329.560760 500.347229,339.973389 
	C465.881622,354.385193 438.724731,378.278442 415.647919,407.008575 
	C399.269714,427.399048 387.714874,450.297363 383.177917,476.545410 
	C399.388000,482.370880 416.295624,486.276978 430.471191,497.216095 
	C432.410645,492.750793 434.244598,488.381012 436.194672,484.063721 
	C445.297943,463.909882 455.030487,444.003143 470.005493,427.492920 
	C498.193085,396.415527 534.161316,379.612610 575.213867,374.368866 
	C608.038452,370.176086 640.396301,373.467804 671.857971,385.030640 
	C713.269775,400.250366 741.595825,428.668945 758.902893,468.660095 
	C762.408264,476.759918 764.948364,485.277496 767.933716,493.603119 
	C780.610779,489.410004 793.227539,485.626617 805.553833,481.059296 
	C820.351929,475.576111 821.090393,478.724091 815.292114,461.420593 
	C801.038208,418.882782 775.778931,384.343964 737.380554,359.075043 
M291.914307,787.411804 
	C298.991028,783.431274 306.359619,779.882629 313.063965,775.351196 
	C320.030731,770.642456 326.439148,765.084412 332.923309,759.695251 
	C335.926178,757.199463 336.733795,753.694763 334.586853,750.314026 
	C330.956543,744.597412 327.004395,739.082703 323.109100,733.538208 
	C321.224335,730.855469 319.048370,730.879761 316.285095,732.638123 
	C308.042999,737.882812 299.506714,742.673584 291.356964,748.053162 
	C279.684784,755.757874 267.534698,762.472412 254.196014,766.740906 
	C213.541153,779.750977 171.983475,787.816956 129.208466,788.819153 
	C125.978020,788.894897 125.143234,790.132507 125.263680,792.942322 
	C125.499138,798.435242 125.711662,803.929993 125.853516,809.425964 
	C126.522705,835.354004 134.402267,859.251587 149.557266,879.897766 
	C187.515457,931.609497 238.739334,953.722046 302.493561,943.967163 
	C347.873383,937.023682 379.286896,909.699890 401.816711,871.320068 
	C410.865936,855.904602 413.183685,838.377197 413.125946,820.339539 
	C407.675964,819.832031 402.581604,819.299011 397.476685,818.901306 
	C393.551392,818.595520 388.376221,816.851990 386.007324,818.673950 
	C383.318085,820.742310 382.959778,826.021484 381.890076,829.986267 
	C374.531647,857.259949 359.715302,878.924927 335.179993,893.700623 
	C304.660370,912.080200 272.949677,917.712952 238.689926,905.081787 
	C201.577957,891.399109 177.065933,865.342163 162.165863,829.400696 
	C160.815445,826.143127 159.728409,822.776306 158.371552,819.055786 
	C205.344284,817.535583 249.761993,808.719849 291.914307,787.411804 
M967.618896,900.116638 
	C959.061157,902.551025 950.621338,905.576355 941.924194,907.312378 
	C912.378235,913.209595 884.923340,907.621948 859.901123,890.829468 
	C843.896851,880.088745 830.238220,867.155396 824.377380,848.045837 
	C821.962463,840.171753 820.661987,831.961060 818.600769,823.968994 
	C818.185425,822.358398 816.676636,819.832458 815.582886,819.785095 
	C807.392883,819.430298 799.180542,819.592102 790.369995,819.592102 
	C791.236145,827.634277 791.873535,835.413879 792.947205,843.132812 
	C795.174194,859.144592 799.085144,874.675476 809.068420,887.831299 
	C841.415771,930.457947 885.335876,947.176697 937.505737,943.114258 
	C980.155090,939.793152 1014.847656,920.134521 1042.409180,887.624207 
	C1063.038452,863.290771 1073.077148,834.902710 1072.520142,803.293274 
	C1072.057739,777.052307 1063.063965,753.879700 1043.869019,734.900818 
	C1033.268799,724.419983 1023.895752,712.676697 1014.264343,701.253906 
	C1012.091125,698.676575 1010.582825,699.669678 1008.852783,700.890808 
	C1005.600403,703.186279 1002.489502,705.685364 999.360107,708.150940 
	C990.298950,715.289612 989.692078,718.871460 996.784973,727.852722 
	C1003.689819,736.595947 1010.684387,745.299011 1018.130920,753.577698 
	C1038.012329,775.681213 1044.694580,801.355591 1035.554321,829.339355 
	C1024.547729,863.036743 1000.470337,885.626404 967.618896,900.116638 
M226.049316,207.479324 
	C264.705750,190.976822 300.809967,196.369843 332.881775,222.582672 
	C344.212585,231.843536 352.063751,245.342606 361.644958,256.788330 
	C362.808807,258.178680 365.320526,260.044220 366.418549,259.624664 
	C373.291290,256.998566 379.983826,253.878479 386.638458,250.716553 
	C388.893463,249.645111 389.359924,247.863174 387.876099,245.426102 
	C383.059021,237.514450 378.614929,229.373856 373.734406,221.502991 
	C345.544006,176.040237 301.594696,160.892563 253.462936,165.631653 
	C228.334641,168.105804 205.876785,178.119247 185.353622,192.331039 
	C162.699722,208.018326 144.985519,227.816101 137.302246,255.063904 
	C131.440338,275.852509 128.138794,296.928741 130.893219,318.620880 
	C133.157822,336.455475 140.971008,352.000061 150.274872,367.020569 
	C157.664337,378.950439 164.702499,391.097687 172.055145,403.050934 
	C172.535980,403.832642 174.805573,404.461029 175.508545,404.011658 
	C182.077026,399.812836 188.546234,395.449463 194.912628,390.947723 
	C197.961502,388.791809 198.928207,386.093536 196.666428,382.448700 
	C192.127579,375.134430 188.055542,367.530396 183.513428,360.218292 
	C174.153427,345.150238 164.473587,330.243744 162.725189,311.925507 
	C160.368423,287.233063 165.262726,264.223389 180.381714,244.280533 
	C192.302948,228.555725 207.960480,216.989777 226.049316,207.479324 
M955.098755,169.317642 
	C936.141235,164.224869 917.184570,164.160156 897.848083,167.718124 
	C867.320251,173.335312 841.529602,186.822678 821.532349,210.760330 
	C812.106018,222.044144 804.555115,234.385712 800.771484,248.829056 
	C799.814697,252.481369 801.113708,254.023926 804.152893,255.253998 
	C809.051453,257.236511 813.821533,259.556641 818.790344,261.329346 
	C819.916260,261.731018 822.218018,260.915405 822.982605,259.905884 
	C827.182739,254.360519 830.719604,248.290054 835.126526,242.927780 
	C866.761841,204.434509 911.661804,188.224380 959.806702,208.255325 
	C998.682129,224.429626 1023.578308,252.285858 1027.903198,295.793854 
	C1028.011597,296.883728 1029.832886,298.685455 1030.821533,298.663116 
	C1037.467773,298.513275 1044.103638,297.938080 1050.745483,297.545380 
	C1054.025391,297.351501 1055.279297,295.694733 1055.400635,292.407379 
	C1055.826538,280.866119 1055.495605,269.305511 1051.430298,258.453796 
	C1034.402222,212.999542 1002.494873,183.339478 955.098755,169.317642 
M596.721924,445.121124 
	C601.031738,444.843170 605.342468,444.339569 609.651062,444.357513 
	C613.205566,444.372314 614.082520,443.000305 613.961670,439.578857 
	C613.468628,425.615387 613.323425,411.640045 612.909607,397.673187 
	C612.798096,393.909332 612.191833,390.160095 611.726257,385.547821 
	C602.113037,386.050720 592.865295,386.445221 583.643066,387.165100 
	C582.789612,387.231750 581.487488,389.339966 581.433472,390.546783 
	C581.158569,396.688782 580.947693,402.859070 581.233154,408.995331 
	C581.792908,421.029755 582.695862,433.048248 583.461243,445.142853 
	C588.162537,445.142853 591.975586,445.142853 596.721924,445.121124 
M582.775208,674.501465 
	C582.775208,679.909485 582.775208,685.317566 582.775208,690.989136 
	C593.183350,690.989136 602.634277,691.078003 612.076416,690.830139 
	C612.882751,690.808960 614.362488,688.500549 614.289307,687.332275 
	C613.698242,677.893127 612.741943,668.477783 612.034668,659.044800 
	C611.492310,651.812256 611.149719,644.564819 610.676819,636.628418 
	C601.329651,636.628418 592.300659,636.628418 582.770935,636.628418 
	C582.770935,648.978699 582.770935,661.241333 582.775208,674.501465 
M611.170532,820.499329 
	C610.785706,808.721375 610.400940,796.943359 610.034241,785.720581 
	C600.182495,785.720581 590.858398,785.720581 580.717041,785.720581 
	C581.822327,805.060974 582.871948,823.427307 583.940308,842.122253 
	C592.662903,841.362671 600.909363,840.734253 609.119080,839.787537 
	C609.920349,839.695129 611.031189,837.663635 611.082275,836.492249 
	C611.299927,831.502747 611.172913,826.498169 611.170532,820.499329 
M592.000305,92.230980 
	C594.975586,92.363327 597.977051,92.800766 600.919312,92.548485 
	C604.365845,92.252983 607.923340,91.543541 609.197571,87.522377 
	C611.197937,81.209557 611.938477,74.728409 610.947571,68.171890 
	C609.884644,61.139301 605.479553,57.913563 597.235046,57.739471 
	C588.687805,57.558990 585.652222,59.526066 584.227112,67.309990 
	C583.522827,71.156982 583.299561,75.378288 584.132507,79.148804 
	C585.198792,83.975830 585.935120,89.439842 592.000305,92.230980 
M593.159424,1111.553833 
	C586.844543,1114.570801 583.246460,1122.988403 585.800476,1129.414673 
	C586.476074,1131.114624 587.824097,1133.044434 589.382507,1133.805054 
	C594.426819,1136.267090 600.087585,1137.595215 605.024475,1134.358643 
	C609.171509,1131.639893 608.422974,1126.848389 607.263977,1122.513550 
	C607.222107,1122.357056 607.252380,1122.182495 607.235291,1122.017822 
	C606.201294,1112.038330 603.642334,1109.975220 593.159424,1111.553833 
M603.679260,153.846588 
	C602.298584,153.309525 600.955322,152.626236 599.530579,152.261475 
	C594.169861,150.888962 589.419312,152.355118 588.455566,155.980988 
	C586.468079,163.458618 585.785767,170.177444 592.231750,172.461533 
	C596.032043,173.808136 600.147522,174.560562 604.175964,174.871902 
	C607.222839,175.107376 609.226624,173.334747 609.673706,169.813293 
	C610.458984,163.627686 609.233765,158.330978 603.679260,153.846588 
M607.219910,199.207123 
	C606.230164,197.107803 605.798035,193.956909 604.156677,193.086517 
	C595.916382,188.716736 588.036072,193.652939 587.760071,202.954346 
	C587.720581,204.284027 587.328918,205.843613 587.872131,206.899841 
	C588.979309,209.052582 590.209167,211.946320 592.117371,212.707504 
	C595.570862,214.085159 599.542175,214.286606 603.328796,214.662933 
	C605.724182,214.901016 607.477051,213.986984 607.332947,210.976593 
	C607.158691,207.336624 607.264893,203.683228 607.219910,199.207123 
M593.003540,924.714966 
	C595.715637,924.058044 598.466125,923.519836 601.114136,922.664429 
	C601.814880,922.438049 602.453613,921.304504 602.683777,920.467407 
	C603.454285,917.665161 598.554565,907.013367 596.032227,905.904358 
	C595.540710,905.688293 594.844055,905.936951 594.242188,905.973938 
	C590.102051,906.228333 586.439270,910.364563 585.985168,915.297546 
	C585.429932,921.328674 586.632690,923.020630 593.003540,924.714966 
M596.494690,1091.048706 
	C602.843506,1089.246948 604.010437,1087.172485 602.287109,1080.696533 
	C601.949280,1079.427002 601.814270,1077.986084 601.101257,1076.961426 
	C600.066711,1075.474854 598.548767,1073.177490 597.313416,1073.224731 
	C594.977966,1073.314087 591.318848,1074.254028 590.654114,1075.855225 
	C588.733154,1080.482666 588.026794,1085.614380 586.711914,1091.097168 
	C590.757263,1091.097168 593.215149,1091.097168 596.494690,1091.048706 
M601.208191,886.001770 
	C601.838074,883.957703 602.588257,881.941650 603.072388,879.863647 
	C604.027100,875.765625 601.188904,872.826538 595.653870,872.029724 
	C590.939270,871.350952 588.375305,873.062439 587.866028,877.228149 
	C586.722168,886.583313 586.722534,886.582153 595.933777,889.661560 
	C596.662537,889.905212 597.380432,890.181458 598.176941,890.469177 
	C599.226685,889.053467 600.107361,887.865662 601.208191,886.001770 
M596.416992,1051.170532 
	C602.280090,1050.636230 603.085876,1049.778076 602.545532,1044.337158 
	C602.367859,1042.547729 601.731812,1040.790039 601.670898,1039.005371 
	C601.465210,1032.974609 596.767822,1033.620850 593.059692,1033.398193 
	C589.111877,1033.161133 588.906372,1036.306763 588.799500,1039.282837 
	C588.758301,1040.429565 588.296997,1041.555664 588.187012,1042.706299 
	C587.598877,1048.856201 589.299255,1050.784180 596.416992,1051.170532 
M589.845154,949.111450 
	C593.469543,954.783325 600.398865,954.950073 604.181702,949.796875 
	C603.137512,946.677979 602.696472,943.423218 601.031189,941.015015 
	C599.755920,939.171021 597.045532,937.798279 594.757935,937.371826 
	C593.391907,937.117249 590.658813,938.781982 590.219238,940.131104 
	C589.378052,942.712646 589.735046,945.684570 589.845154,949.111450 
M599.233154,974.475525 
	C598.893494,969.411072 594.867188,969.356873 591.460876,969.276062 
	C587.381531,969.179321 589.053284,972.679871 588.720276,974.836853 
	C588.443848,976.627625 587.699341,978.608032 588.188599,980.186218 
	C588.749451,981.995178 590.147949,984.440735 591.692078,984.901184 
	C600.762146,987.606262 601.394043,986.914490 599.912109,977.556946 
	C599.783875,976.747009 599.521240,975.958374 599.233154,974.475525 
M601.332947,1003.296326 
	C599.407349,997.861450 594.891296,1000.334778 590.976379,999.477234 
	C590.499207,1003.541138 589.768677,1007.125610 589.793396,1010.704834 
	C589.805115,1012.403381 591.504456,1015.618469 592.017822,1015.535645 
	C595.175110,1015.026062 599.129333,1014.596619 601.007935,1012.510315 
	C602.598877,1010.743408 601.742615,1006.772888 601.332947,1003.296326 
M587.189087,1037.087158 
	C587.293457,1036.985474 587.396240,1036.806641 587.502747,1036.804443 
	C587.602844,1036.802246 587.806641,1037.003540 587.792480,1037.085693 
	C587.725220,1037.477295 587.599182,1037.858765 587.494080,1038.243896 
	C587.370605,1038.003540 587.247192,1037.763306 587.189087,1037.087158 
z"/>

</svg>